<svg width="223" height="266" viewBox="0 0 223 266" fill="none" xmlns="http://www.w3.org/2000/svg">
<path d="M193.309 105.982C229.792 74.0398 224.188 7.2517 217.45 0.505166C213.685 -3.26116 204.849 14.7968 181.308 29.2809C180.465 39.4848 178.906 48.9794 176.803 57.9239C175.646 50.2437 174.306 42.3809 172.741 34.2882C162.412 39.861 150.133 44.8548 136.733 49.2934C131.121 64.5002 124.159 78.3532 117.004 92.0127C116.73 80.0604 116.394 68.055 115.798 55.7807C94.6059 62.003 73.0565 67.8984 56.702 75.6988C45.6112 80.9615 37.1835 90.5424 33.3586 102.202C29.6871 113.405 26.8002 125.393 25.1195 138.587C22.5687 126.021 20.5649 114.007 18.9818 102.409C-8.47653 131.382 -1.64 179.226 11.3787 198.539C11.8265 210.697 14.1854 220.353 15.8433 224.661C20.0352 238.438 24.9574 250.659 35.1385 266C35.1385 265.986 29.3147 222.124 29.3147 222.124C28.6473 218.766 28.2743 213.387 28.3507 206.747C40.8224 203.205 56.9888 184.654 86.3886 169.807C73.6209 167.058 61.275 164.728 49.4708 162.942C62.992 159.786 78.0329 158.146 93.9928 157.429C106.289 156.882 118.483 153.887 129.619 148.615C148.564 139.55 169.415 127.984 186.105 112.997C177.767 110.778 169.325 108.473 160.825 106.093C171.912 106.314 182.792 106.331 193.309 105.982Z" fill="#00F7FF"/>
</svg>
